<?xml version="1.0" encoding="utf-8"?>
<!-- Generator: Adobe Illustrator 25.3.1, SVG Export Plug-In . SVG Version: 6.00 Build 0)  -->
<svg version="1.1" id="Layer_1" xmlns="http://www.w3.org/2000/svg" xmlns:xlink="http://www.w3.org/1999/xlink" x="0px" y="0px"
	 viewBox="0 0 144 144" style="enable-background:new 0 0 144 144;" xml:space="preserve">
<style type="text/css">
	.st0{fill:#039BE5;}
	.st1{fill:#FFFFFF;}
</style>
<g>
	<path class="st0" d="M72,0C32.2,0,0,32.2,0,72s32.2,72,72,72s72-32.2,72-72S111.8,0,72,0z"/>
	<path class="st1" d="M81.7,91.1h18.6l2.9-18.9H81.7V61.8c0-7.9,2.6-14.8,9.9-14.8h11.8V30.5c-2.1-0.3-6.5-0.9-14.8-0.9
		c-17.3,0-27.5,9.2-27.5,30v12.6H43.4v18.9h17.8v52c3.5,0.5,7.1,0.9,10.8,0.9c3.3,0,6.6-0.3,9.7-0.7V91.1z"/>
</g>
</svg>
